<?xml version="1.0" encoding="utf-8"?>
<!-- Generator: Adobe Illustrator 22.1.0, SVG Export Plug-In . SVG Version: 6.00 Build 0)  -->
<svg version="1.1" id="Layer_1" xmlns="http://www.w3.org/2000/svg" xmlns:xlink="http://www.w3.org/1999/xlink" x="0px" y="0px"
	 viewBox="0 0 48.3 48.1" style="enable-background:new 0 0 48.3 48.1;" xml:space="preserve">
<style type="text/css">
	.st0{fill:none;stroke:#ff0000;stroke-width:4;stroke-miterlimit:10;}
</style>
<path class="st0" d="M28.9,33.6c0,0,3.7-2.1,4.7-2.7c1-0.6,2-0.6,2.6-0.3c0.9,0.6,8.7,5.7,9.4,6.2s1,1.7,0.1,3s-5.1,6.3-6.8,6.3
	c-1.7-0.1-9-0.2-22.8-14S2.1,11.1,2,9.4s5.1-5.9,6.4-6.8s2.6-0.6,3,0.1c0.6,0.7,5.6,8.5,6.2,9.4c0.4,0.6,0.3,1.7-0.3,2.6
	c-0.6,1-2.7,4.7-2.7,4.7s1.5,2.6,6.6,7.6S28.9,33.6,28.9,33.6z"/>
</svg>
